<svg width="70" height="70" viewBox="0 0 70 70" fill="none" xmlns="http://www.w3.org/2000/svg">
<g opacity="0.4">
<path fill-rule="evenodd" clip-rule="evenodd" d="M35.0003 2.91666C36.1822 2.91666 37.2473 3.62992 37.6973 4.7228L46.4073 25.8757L59.4034 15.2426C60.3494 14.4686 61.6778 14.3666 62.731 14.9871C63.7841 15.6076 64.3386 16.8191 64.1199 18.0217L58.3336 49.8463V61.25C58.3336 62.8608 57.0278 64.1667 55.417 64.1667H14.5836C12.9728 64.1667 11.667 62.8608 11.667 61.25V49.8463L5.88069 18.0217C5.66202 16.8191 6.2165 15.6076 7.26965 14.9871C8.3228 14.3666 9.65118 14.4686 10.5973 15.2426L23.5933 25.8757L32.3033 4.7228C32.7533 3.62992 33.8184 2.91666 35.0003 2.91666ZM17.5003 52.5V58.3333H52.5003V52.5H17.5003ZM52.9828 46.6667L56.9628 24.7764L47.0556 32.8824C46.3406 33.4674 45.3906 33.6791 44.4949 33.453C43.5991 33.2269 42.8634 32.5898 42.5117 31.7355L35.0003 13.4936L27.489 31.7355C27.1372 32.5898 26.4015 33.2269 25.5057 33.453C24.61 33.6791 23.6601 33.4674 22.945 32.8824L13.0378 24.7764L17.0178 46.6667H52.9828Z" fill="#F1F1F1"/>
</g>
</svg>
